<svg width="390" height="143" viewBox="0 0 390 143" fill="none" xmlns="http://www.w3.org/2000/svg">
<path d="M219 0C228.176 0 235.615 7.43888 235.615 16.6152C235.615 16.7238 235.613 16.8323 235.611 16.9404C236.502 16.7297 237.43 16.6162 238.385 16.6162C243.376 16.6162 247.654 19.664 249.463 24H258.692C263.281 24 267 27.7195 267 32.3076C267 36.8958 263.281 40.6152 258.692 40.6152H238.446C238.426 40.6153 238.405 40.6162 238.385 40.6162C238.364 40.6162 238.344 40.6153 238.323 40.6152H179.308C174.719 40.6152 171 36.8958 171 32.3076C171 27.7195 174.719 24 179.308 24H189.787C189.577 23.111 189.462 22.1847 189.462 21.2314C189.462 14.604 194.834 9.23145 201.462 9.23145C202.327 9.23145 203.17 9.32427 203.982 9.49805C206.648 3.88276 212.371 5.88346e-05 219 0Z" fill="white"/>
<path d="M35.9092 41C48.7004 41.0001 59.0693 51.3699 59.0693 64.1611C59.0693 64.3112 59.0663 64.4609 59.0635 64.6104C60.3044 64.3167 61.599 64.1611 62.9297 64.1611C69.8875 64.1612 75.852 68.41 78.373 74.4541H91.2373C97.633 74.4541 102.818 79.6395 102.818 86.0352C102.818 92.4307 97.6329 97.6152 91.2373 97.6152H-19.4199C-25.8154 97.6151 -30.9999 92.4306 -31 86.0352C-31 79.6396 -25.8155 74.4543 -19.4199 74.4541H-4.81738C-5.11004 73.2151 -5.26559 71.9231 -5.26562 70.5947C-5.26562 61.3567 2.22292 53.8674 11.4609 53.8672C12.6668 53.8672 13.8431 53.9958 14.9766 54.2383C18.6931 46.4118 26.6688 41 35.9092 41Z" fill="white"/>
<path d="M322.545 63C340.619 63.0002 355.271 77.6529 355.271 95.7275C355.271 95.9396 355.267 96.1512 355.263 96.3623C357.017 95.9472 358.847 95.7275 360.728 95.7275C370.56 95.7277 378.989 101.731 382.551 110.272H400.727C409.764 110.272 417.091 117.599 417.091 126.637C417.091 135.674 409.764 143 400.727 143H244.363C235.326 143 228 135.674 228 126.637C228 117.599 235.326 110.273 244.363 110.272H264.997C264.583 108.521 264.363 106.695 264.363 104.817C264.364 91.7637 274.945 81.1818 287.999 81.1816C289.703 81.1816 291.364 81.3636 292.966 81.7061C298.217 70.6469 309.488 63 322.545 63Z" fill="white"/>
</svg>
