<svg width="205" height="244" viewBox="0 0 205 244" fill="none" xmlns="http://www.w3.org/2000/svg">
<path d="M125.438 107.895C129.147 115.622 140.135 111.125 146.276 106.847C152.417 102.57 156.703 96.1728 161.816 90.6987C166.928 85.2246 173.692 80.3762 181.158 80.8297C186.076 81.1269 190.58 83.7153 194.438 86.7887C199.558 90.8786 204.148 96.6107 204.015 103.172C203.891 109.569 199.355 114.988 194.578 119.227C186.044 126.812 175.921 132.583 165.065 136.063C152.386 140.13 137.673 141.717 129.085 151.93C125.5 156.192 123.419 161.588 122.461 167.086C121.876 170.441 121.697 173.999 122.959 177.158C124.222 180.325 127.207 182.984 130.597 182.976C134.61 182.969 137.673 179.535 140.174 176.392C143.369 172.38 146.572 168.36 149.768 164.349C153.095 160.173 157.07 155.645 162.392 155.348C167.723 155.051 172.438 159.438 174.23 164.49C176.015 169.541 176.085 179.379 175.906 191.367C175.734 202.683 174.261 210.214 168.915 220.177C163.569 230.14 159.057 236.38 148.443 240.22C138.179 243.934 116.756 243.371 105.861 242.722C94.2808 242.034 84.3134 242.722 75.2968 238.969C65.9841 235.098 56.2505 227.074 53.2112 217.51C51.45 211.966 50.3667 194.886 49.229 189.178C44.9428 167.719 38.833 148.927 19.4905 138.808C15.4537 136.697 11.1675 134.922 7.66062 132.005C0.218226 125.811 -2.37687 114.143 2.45484 105.745C7.28656 97.3458 17.9943 97.5414 27.533 99.0976C34.2428 100.192 46.3845 109.404 52.1903 127.555C56.8662 142.163 56.2038 156.904 70.582 162.112C72.39 162.769 74.4006 163.293 76.2086 162.652C78.8271 161.713 80.0584 158.718 80.6039 155.981C82.4665 146.691 79.9259 136.892 75.1799 128.705C70.4339 120.509 63.6072 113.729 56.422 107.567C50.7564 102.703 41.7476 97.729 37.3445 91.6919C31.9906 84.341 28.0551 72.2979 31.7335 63.9695C35.4118 55.6411 50.998 53.1933 58.5573 58.2295C65.236 62.687 66.3504 71.8209 69.1013 79.383C71.3068 85.4358 74.9228 90.9646 79.583 95.3986C83.0276 98.6753 87.306 101.451 92.052 101.623C96.798 101.795 101.871 98.5814 102.448 93.8581C103.025 89.1582 99.3463 85.1308 95.9485 81.8463C89.3945 75.5198 82.8483 69.1934 76.2944 62.859C72.2887 58.9881 68.2441 55.078 65.1502 50.4328C61.1913 44.4817 58.9313 37.514 57.8715 30.4367C56.8584 23.6723 57.0142 16.3449 60.6069 10.5345C64.1995 4.72414 72.0861 1.2129 78.1569 4.33313C84.5239 7.60977 88.171 17.1112 95.2549 16.1024C103.625 14.906 104.988 -0.124345 113.444 0.000776802C121.892 0.133719 122.5 15.0154 130.682 17.1347C136.395 18.6205 141.109 12.9431 145.287 8.75933C148.505 5.52961 152.565 2.7691 157.109 2.56578C165.541 2.18259 172.04 10.9255 172.679 19.3713C173.544 30.7808 170.03 57.2598 162.011 65.3928C153.991 73.5257 152.09 75.6997 143.627 81.6821C134.306 88.2745 121.635 97.1034 125.422 107.895" fill="#06B6D4"/>
</svg>
